<?xml version="1.0" encoding="UTF-8" standalone="no"?>
<!-- Created with Inkscape (http://www.inkscape.org/) -->

<svg
   width="32"
   height="32"
   viewBox="0 0 8.4666665 8.4666669"
   version="1.1"
   id="svg274"
   inkscape:version="1.1.2 (0a00cf5339, 2022-02-04)"
   sodipodi:docname="icone_apeperia.svg"
   xmlns:inkscape="http://www.inkscape.org/namespaces/inkscape"
   xmlns:sodipodi="http://sodipodi.sourceforge.net/DTD/sodipodi-0.dtd"
   xmlns="http://www.w3.org/2000/svg"
   xmlns:svg="http://www.w3.org/2000/svg">
  <sodipodi:namedview
     id="namedview276"
     pagecolor="#ffffff"
     bordercolor="#666666"
     borderopacity="1.0"
     inkscape:pageshadow="2"
     inkscape:pageopacity="0.0"
     inkscape:pagecheckerboard="0"
     inkscape:document-units="mm"
     showgrid="false"
     units="px"
     width="32px"
     inkscape:snap-page="false"
     inkscape:zoom="10.703125"
     inkscape:cx="16.023358"
     inkscape:cy="16.023358"
     inkscape:current-layer="layer1"
     inkscape:snap-global="false" />
  <defs
     id="defs271" />
  <g
     inkscape:label="Camada 1"
     inkscape:groupmode="layer"
     id="layer1">
    <g
       id="Oval 1"
       transform="matrix(0.20183037,0,0,0.2031013,-450.37026,200.52889)"
       style="fill:#333333;fill-opacity:1">
      <path
         id="use6"
         fill-rule="evenodd"
         d="m 2252.4044,-945.89082 c 11.4487,0 20.7297,-9.22295 20.7297,-20.59998 0,-11.37713 -9.281,-20.60008 -20.7297,-20.60008 -11.4487,0 -20.7298,9.22295 -20.7298,20.60008 0,11.37703 9.2811,20.59998 20.7298,20.59998 z"
         style="fill:#333333;fill-opacity:1;stroke-width:0.925255" />
    </g>
    <g
       id="Oval 1-2"
       transform="matrix(0.18855602,0,0,0.18974338,-420.47106,187.61857)">
      <path
         id="use6-9"
         fill-rule="evenodd"
         d="m 2252.4044,-945.89082 c 11.4487,0 20.7297,-9.22295 20.7297,-20.59998 0,-11.37713 -9.281,-20.60008 -20.7297,-20.60008 -11.4487,0 -20.7298,9.22295 -20.7298,20.60008 0,11.37703 9.2811,20.59998 20.7298,20.59998 z"
         style="fill:#b72e2e;stroke-width:0.925255" />
    </g>
    <g
       id="a"
       transform="matrix(0.20183037,0,0,0.2031013,-450.37026,200.52889)">
      <path
         id="use9"
         d="m 2255.8684,-954 c -0.174,-0.3914 -0.3262,-0.79 -0.4566,-1.1958 -0.1305,-0.4204 -0.2319,-0.8407 -0.3044,-1.2611 -0.7537,0.8697 -1.6742,1.5727 -2.7613,2.109 -1.0726,0.5363 -2.3047,0.8045 -3.6962,0.8045 -2.3047,0 -4.1383,-0.6233 -5.5008,-1.8699 -1.348,-1.261 -2.022,-2.9714 -2.022,-5.1311 0,-2.2033 0.8842,-3.9064 2.6525,-5.1095 1.7684,-1.2031 4.363,-1.8046 7.7838,-1.8046 h 3.2396 v -2.3047 c 0,-1.1306 -0.3261,-2.0075 -0.9784,-2.6308 -0.6523,-0.6233 -1.6162,-0.9349 -2.8917,-0.9349 -0.7248,0 -1.3698,0.0869 -1.9351,0.2609 -0.5653,0.1594 -1.0219,0.3551 -1.3698,0.587 l -0.4131,2.5221 h -4.7833 l 0.022,-5.2181 c 1.1596,-0.7828 2.4859,-1.4423 3.9789,-1.9786 1.5075,-0.5363 3.1454,-0.8045 4.9138,-0.8045 2.9134,0 5.2761,0.7175 7.088,2.1525 1.8263,1.4205 2.7395,3.4498 2.7395,6.0879 v 9.7188 c 0,0.3624 0,0.703 0,1.0219 0.015,0.3189 0.044,0.6233 0.087,0.9132 l 1.935,0.2609 V -954 Z m -5.5008,-4.2398 c 0.9566,0 1.8263,-0.2029 2.609,-0.6087 0.7828,-0.4204 1.3915,-0.9422 1.8264,-1.5655 v -3.5875 h -3.2396 c -1.348,0 -2.3699,0.3189 -3.0657,0.9567 -0.6957,0.6233 -1.0436,1.377 -1.0436,2.2612 0,0.7972 0.2536,1.4205 0.761,1.8698 0.5218,0.4494 1.2393,0.674 2.1525,0.674 z"
         style="fill:#333333" />
    </g>
  </g>
</svg>
